<svg xmlns="http://www.w3.org/2000/svg" viewBox="0 0 1600 500" role="img" aria-label="ManhwaRank The Archive dark logo">
  <defs>
    <filter id="shadow" x="-20%" y="-20%" width="140%" height="140%">
      <feDropShadow dx="0" dy="6" stdDeviation="10" flood-color="#000000" flood-opacity="0.35"/>
    </filter>
  </defs>
  <rect width="1600" height="500" fill="#0D0B0E"/>
  <g transform="translate(105 78)" filter="url(#shadow)">
    <rect x="0" y="78" width="42" height="194" rx="1" fill="#B11A22"/>
    <rect x="52" y="8" width="42" height="264" rx="1" fill="#C1121F"/>
    <rect x="104" y="54" width="42" height="218" rx="1" fill="#B11A22"/>
    <rect x="156" y="120" width="42" height="152" rx="1" fill="#B11A22"/>
    <path d="M78 98 L124 98 L124 232 L111 232 L111 165 L91 165 L91 232 L78 232 Z" fill="#0D0B0E"/>
    <path d="M78 98 L124 98 L124 118 L104 118 L104 232 L124 232 L124 252 L78 252 Z" fill="#0D0B0E" opacity="0.22"/>
    <path d="M78 98 L102 98 L148 252 L123 252 L111 216 L91 216 L79 252 L54 252 Z" fill="none" stroke="#F0EBF4" stroke-width="10" stroke-linejoin="round"/>
  </g>
  <g filter="url(#shadow)">
    <text x="330" y="248" fill="#F0EBF4" font-family="Playfair Display, Georgia, serif" font-size="132" font-weight="700" letter-spacing="-1">MANHWA</text>
    <text x="1105" y="248" fill="#C1121F" font-family="Playfair Display, Georgia, serif" font-size="132" font-weight="700" letter-spacing="-1">RANK</text>
    <text x="800" y="338" text-anchor="middle" fill="#C7B69E" font-family="DM Mono, Consolas, monospace" font-size="62" letter-spacing="12">THE ARCHIVE</text>
  </g>
</svg>
